<?xml version="1.0" encoding="UTF-8" standalone="no"?>
<!DOCTYPE svg PUBLIC "-//W3C//DTD SVG 1.1//EN"
 "http://www.w3.org/Graphics/SVG/1.1/DTD/svg11.dtd">
<!-- Generated by graphviz version 2.47.0 (20210316.0004)
 -->
<!-- Title: dependencies Pages: 1 -->
<svg width="842pt" height="211pt"
 viewBox="0.00 0.00 842.00 211.00" xmlns="http://www.w3.org/2000/svg" xmlns:xlink="http://www.w3.org/1999/xlink">
<g id="graph0" class="graph" transform="scale(1 1) rotate(0) translate(4 207)">
<title>dependencies</title>
<polygon fill="white" stroke="transparent" points="-4,4 -4,-207 838,-207 838,4 -4,4"/>
<text text-anchor="start" x="396.01" y="-42.4" font-family="Times-12" font-weight="bold" font-size="14.00">Legend</text>
<polygon fill="#ffffb3" stroke="transparent" points="183,-10 183,-30 203,-30 203,-10 183,-10"/>
<text text-anchor="start" x="206.63" y="-15.4" font-family="Times-12" font-size="14.00"> &#160;Declarations</text>
<polygon fill="#8dd3c7" stroke="transparent" points="296,-10 296,-30 316,-30 316,-10 296,-10"/>
<text text-anchor="start" x="319.73" y="-15.4" font-family="Times-12" font-size="14.00"> &#160;Module</text>
<polygon fill="#80b1d3" stroke="transparent" points="382,-10 382,-30 402,-30 402,-10 382,-10"/>
<text text-anchor="start" x="405.78" y="-15.4" font-family="Times-12" font-size="14.00"> &#160;Bootstrap</text>
<polygon fill="#fdb462" stroke="transparent" points="479,-10 479,-30 499,-30 499,-10 479,-10"/>
<text text-anchor="start" x="502.67" y="-15.4" font-family="Times-12" font-size="14.00"> &#160;Providers</text>
<polygon fill="#fb8072" stroke="transparent" points="575,-10 575,-30 595,-30 595,-10 575,-10"/>
<text text-anchor="start" x="598.73" y="-15.4" font-family="Times-12" font-size="14.00"> &#160;Exports</text>
<g id="clust1" class="cluster">
<title>cluster_MenuModule</title>
<polygon fill="none" stroke="black" stroke-dasharray="1,5" points="8,-70 8,-195 826,-195 826,-70 8,-70"/>
</g>
<g id="clust2" class="cluster">
<title>cluster_MenuModule_declarations</title>
<polygon fill="none" stroke="black" points="16,-78 16,-130 818,-130 818,-78 16,-78"/>
</g>
<!-- MenuComponent -->
<g id="node1" class="node">
<title>MenuComponent</title>
<polygon fill="#ffffb3" stroke="black" points="809.99,-122 696.01,-122 696.01,-86 809.99,-86 809.99,-122"/>
<text text-anchor="middle" x="753" y="-99.8" font-family="Times,serif" font-size="14.00">MenuComponent</text>
</g>
<!-- MenuModule -->
<g id="node6" class="node">
<title>MenuModule</title>
<polygon fill="#8dd3c7" stroke="black" points="456.21,-187 453.21,-191 432.21,-191 429.21,-187 363.79,-187 363.79,-151 456.21,-151 456.21,-187"/>
<text text-anchor="middle" x="410" y="-164.8" font-family="Times,serif" font-size="14.00">MenuModule</text>
</g>
<!-- MenuComponent&#45;&gt;MenuModule -->
<g id="edge1" class="edge">
<title>MenuComponent&#45;&gt;MenuModule</title>
<path fill="none" stroke="black" d="M753,-122.28C753,-143.32 753,-175 753,-175 753,-175 466.26,-175 466.26,-175"/>
<polygon fill="black" stroke="black" points="466.26,-171.5 456.26,-175 466.26,-178.5 466.26,-171.5"/>
</g>
<!-- MenuGameModeComponent -->
<g id="node2" class="node">
<title>MenuGameModeComponent</title>
<polygon fill="#ffffb3" stroke="black" points="678.08,-122 497.92,-122 497.92,-86 678.08,-86 678.08,-122"/>
<text text-anchor="middle" x="588" y="-99.8" font-family="Times,serif" font-size="14.00">MenuGameModeComponent</text>
</g>
<!-- MenuGameModeComponent&#45;&gt;MenuModule -->
<g id="edge2" class="edge">
<title>MenuGameModeComponent&#45;&gt;MenuModule</title>
<path fill="none" stroke="black" d="M588,-122.02C588,-139.37 588,-163 588,-163 588,-163 466.3,-163 466.3,-163"/>
<polygon fill="black" stroke="black" points="466.3,-159.5 456.3,-163 466.3,-166.5 466.3,-159.5"/>
</g>
<!-- MenuItemComponent -->
<g id="node3" class="node">
<title>MenuItemComponent</title>
<polygon fill="#ffffb3" stroke="black" points="479.65,-122 340.35,-122 340.35,-86 479.65,-86 479.65,-122"/>
<text text-anchor="middle" x="410" y="-99.8" font-family="Times,serif" font-size="14.00">MenuItemComponent</text>
</g>
<!-- MenuItemComponent&#45;&gt;MenuModule -->
<g id="edge3" class="edge">
<title>MenuItemComponent&#45;&gt;MenuModule</title>
<path fill="none" stroke="black" d="M410,-122.11C410,-122.11 410,-140.99 410,-140.99"/>
<polygon fill="black" stroke="black" points="406.5,-140.99 410,-150.99 413.5,-140.99 406.5,-140.99"/>
</g>
<!-- MenuSavesComponent -->
<g id="node4" class="node">
<title>MenuSavesComponent</title>
<polygon fill="#ffffb3" stroke="black" points="322.15,-122 175.85,-122 175.85,-86 322.15,-86 322.15,-122"/>
<text text-anchor="middle" x="249" y="-99.8" font-family="Times,serif" font-size="14.00">MenuSavesComponent</text>
</g>
<!-- MenuSavesComponent&#45;&gt;MenuModule -->
<g id="edge4" class="edge">
<title>MenuSavesComponent&#45;&gt;MenuModule</title>
<path fill="none" stroke="black" d="M249,-122.02C249,-139.37 249,-163 249,-163 249,-163 353.86,-163 353.86,-163"/>
<polygon fill="black" stroke="black" points="353.86,-166.5 363.86,-163 353.86,-159.5 353.86,-166.5"/>
</g>
<!-- SaveItemComponent -->
<g id="node5" class="node">
<title>SaveItemComponent</title>
<polygon fill="#ffffb3" stroke="black" points="158.2,-122 23.8,-122 23.8,-86 158.2,-86 158.2,-122"/>
<text text-anchor="middle" x="91" y="-99.8" font-family="Times,serif" font-size="14.00">SaveItemComponent</text>
</g>
<!-- SaveItemComponent&#45;&gt;MenuModule -->
<g id="edge5" class="edge">
<title>SaveItemComponent&#45;&gt;MenuModule</title>
<path fill="none" stroke="black" d="M91,-122.28C91,-143.32 91,-175 91,-175 91,-175 353.61,-175 353.61,-175"/>
<polygon fill="black" stroke="black" points="353.61,-178.5 363.61,-175 353.61,-171.5 353.61,-178.5"/>
</g>
</g>
</svg>
