<?xml version="1.0" encoding="UTF-8" standalone="no"?>
<!DOCTYPE svg PUBLIC "-//W3C//DTD SVG 1.1//EN"
 "http://www.w3.org/Graphics/SVG/1.1/DTD/svg11.dtd">
<!-- Generated by graphviz version 2.47.0 (20210316.0004)
 -->
<!-- Title: dependencies Pages: 1 -->
<svg width="504pt" height="284pt"
 viewBox="0.00 0.00 504.00 284.00" xmlns="http://www.w3.org/2000/svg" xmlns:xlink="http://www.w3.org/1999/xlink">
<g id="graph0" class="graph" transform="scale(1 1) rotate(0) translate(4 280)">
<title>dependencies</title>
<polygon fill="white" stroke="transparent" points="-4,4 -4,-280 500,-280 500,4 -4,4"/>
<text text-anchor="start" x="227.01" y="-42.4" font-family="Times-12" font-weight="bold" font-size="14.00">Legend</text>
<polygon fill="#ffffb3" stroke="transparent" points="14,-10 14,-30 34,-30 34,-10 14,-10"/>
<text text-anchor="start" x="37.63" y="-15.4" font-family="Times-12" font-size="14.00"> &#160;Declarations</text>
<polygon fill="#8dd3c7" stroke="transparent" points="127,-10 127,-30 147,-30 147,-10 127,-10"/>
<text text-anchor="start" x="150.73" y="-15.4" font-family="Times-12" font-size="14.00"> &#160;Module</text>
<polygon fill="#80b1d3" stroke="transparent" points="213,-10 213,-30 233,-30 233,-10 213,-10"/>
<text text-anchor="start" x="236.78" y="-15.4" font-family="Times-12" font-size="14.00"> &#160;Bootstrap</text>
<polygon fill="#fdb462" stroke="transparent" points="310,-10 310,-30 330,-30 330,-10 310,-10"/>
<text text-anchor="start" x="333.67" y="-15.4" font-family="Times-12" font-size="14.00"> &#160;Providers</text>
<polygon fill="#fb8072" stroke="transparent" points="406,-10 406,-30 426,-30 426,-10 406,-10"/>
<text text-anchor="start" x="429.73" y="-15.4" font-family="Times-12" font-size="14.00"> &#160;Exports</text>
<g id="clust1" class="cluster">
<title>cluster_HeaderModule</title>
<polygon fill="none" stroke="black" stroke-dasharray="1,5" points="25.5,-70 25.5,-268 470.5,-268 470.5,-70 25.5,-70"/>
</g>
<g id="clust7" class="cluster">
<title>cluster_HeaderModule_exports</title>
<polygon fill="none" stroke="black" points="171.5,-208 171.5,-260 313.5,-260 313.5,-208 171.5,-208"/>
</g>
<g id="clust2" class="cluster">
<title>cluster_HeaderModule_declarations</title>
<polygon fill="none" stroke="black" points="33.5,-78 33.5,-130 462.5,-130 462.5,-78 33.5,-78"/>
</g>
<!-- HeaderComponent -->
<g id="node1" class="node">
<title>HeaderComponent</title>
<polygon fill="#ffffb3" stroke="black" points="454.24,-122 332.76,-122 332.76,-86 454.24,-86 454.24,-122"/>
<text text-anchor="middle" x="393.5" y="-99.8" font-family="Times,serif" font-size="14.00">HeaderComponent</text>
</g>
<!-- HeaderModule -->
<g id="node4" class="node">
<title>HeaderModule</title>
<polygon fill="#8dd3c7" stroke="black" points="292.46,-187 289.46,-191 268.46,-191 265.46,-187 192.54,-187 192.54,-151 292.46,-151 292.46,-187"/>
<text text-anchor="middle" x="242.5" y="-164.8" font-family="Times,serif" font-size="14.00">HeaderModule</text>
</g>
<!-- HeaderComponent&#45;&gt;HeaderModule -->
<g id="edge1" class="edge">
<title>HeaderComponent&#45;&gt;HeaderModule</title>
<path fill="none" stroke="black" d="M393.5,-122.11C393.5,-141.34 393.5,-169 393.5,-169 393.5,-169 302.78,-169 302.78,-169"/>
<polygon fill="black" stroke="black" points="302.78,-165.5 292.78,-169 302.78,-172.5 302.78,-165.5"/>
</g>
<!-- HeaderNavComponent -->
<g id="node2" class="node">
<title>HeaderNavComponent</title>
<polygon fill="#ffffb3" stroke="black" points="315.06,-122 169.94,-122 169.94,-86 315.06,-86 315.06,-122"/>
<text text-anchor="middle" x="242.5" y="-99.8" font-family="Times,serif" font-size="14.00">HeaderNavComponent</text>
</g>
<!-- HeaderNavComponent&#45;&gt;HeaderModule -->
<g id="edge2" class="edge">
<title>HeaderNavComponent&#45;&gt;HeaderModule</title>
<path fill="none" stroke="black" d="M242.5,-122.11C242.5,-122.11 242.5,-140.99 242.5,-140.99"/>
<polygon fill="black" stroke="black" points="239,-140.99 242.5,-150.99 246,-140.99 239,-140.99"/>
</g>
<!-- LogoComponent -->
<g id="node3" class="node">
<title>LogoComponent</title>
<polygon fill="#ffffb3" stroke="black" points="151.89,-122 41.11,-122 41.11,-86 151.89,-86 151.89,-122"/>
<text text-anchor="middle" x="96.5" y="-99.8" font-family="Times,serif" font-size="14.00">LogoComponent</text>
</g>
<!-- LogoComponent&#45;&gt;HeaderModule -->
<g id="edge3" class="edge">
<title>LogoComponent&#45;&gt;HeaderModule</title>
<path fill="none" stroke="black" d="M96.5,-122.11C96.5,-141.34 96.5,-169 96.5,-169 96.5,-169 182.26,-169 182.26,-169"/>
<polygon fill="black" stroke="black" points="182.26,-172.5 192.26,-169 182.26,-165.5 182.26,-172.5"/>
</g>
<!-- HeaderComponent  -->
<g id="node5" class="node">
<title>HeaderComponent </title>
<polygon fill="#fb8072" stroke="black" points="305.24,-252 179.76,-252 179.76,-216 305.24,-216 305.24,-252"/>
<text text-anchor="middle" x="242.5" y="-229.8" font-family="Times,serif" font-size="14.00">HeaderComponent </text>
</g>
<!-- HeaderModule&#45;&gt;HeaderComponent  -->
<g id="edge4" class="edge">
<title>HeaderModule&#45;&gt;HeaderComponent </title>
<path fill="none" stroke="black" stroke-dasharray="5,2" d="M242.5,-187.11C242.5,-187.11 242.5,-205.99 242.5,-205.99"/>
<polygon fill="black" stroke="black" points="239,-205.99 242.5,-215.99 246,-205.99 239,-205.99"/>
</g>
</g>
</svg>
