<?xml version="1.0" encoding="UTF-8" standalone="no"?>
<!DOCTYPE svg PUBLIC "-//W3C//DTD SVG 1.1//EN"
 "http://www.w3.org/Graphics/SVG/1.1/DTD/svg11.dtd">
<!-- Generated by graphviz version 2.47.0 (20210316.0004)
 -->
<!-- Title: dependencies Pages: 1 -->
<svg width="616pt" height="211pt"
 viewBox="0.00 0.00 616.00 211.00" xmlns="http://www.w3.org/2000/svg" xmlns:xlink="http://www.w3.org/1999/xlink">
<g id="graph0" class="graph" transform="scale(1 1) rotate(0) translate(4 207)">
<title>dependencies</title>
<polygon fill="white" stroke="transparent" points="-4,4 -4,-207 612,-207 612,4 -4,4"/>
<text text-anchor="start" x="283.01" y="-42.4" font-family="Times-12" font-weight="bold" font-size="14.00">Legend</text>
<polygon fill="#ffffb3" stroke="transparent" points="70,-10 70,-30 90,-30 90,-10 70,-10"/>
<text text-anchor="start" x="93.63" y="-15.4" font-family="Times-12" font-size="14.00"> &#160;Declarations</text>
<polygon fill="#8dd3c7" stroke="transparent" points="183,-10 183,-30 203,-30 203,-10 183,-10"/>
<text text-anchor="start" x="206.73" y="-15.4" font-family="Times-12" font-size="14.00"> &#160;Module</text>
<polygon fill="#80b1d3" stroke="transparent" points="269,-10 269,-30 289,-30 289,-10 269,-10"/>
<text text-anchor="start" x="292.78" y="-15.4" font-family="Times-12" font-size="14.00"> &#160;Bootstrap</text>
<polygon fill="#fdb462" stroke="transparent" points="366,-10 366,-30 386,-30 386,-10 366,-10"/>
<text text-anchor="start" x="389.67" y="-15.4" font-family="Times-12" font-size="14.00"> &#160;Providers</text>
<polygon fill="#fb8072" stroke="transparent" points="462,-10 462,-30 482,-30 482,-10 462,-10"/>
<text text-anchor="start" x="485.73" y="-15.4" font-family="Times-12" font-size="14.00"> &#160;Exports</text>
<g id="clust1" class="cluster">
<title>cluster_GameModule</title>
<polygon fill="none" stroke="black" stroke-dasharray="1,5" points="8,-70 8,-195 600,-195 600,-70 8,-70"/>
</g>
<g id="clust2" class="cluster">
<title>cluster_GameModule_declarations</title>
<polygon fill="none" stroke="black" points="16,-78 16,-130 592,-130 592,-78 16,-78"/>
</g>
<!-- BoardComponent -->
<g id="node1" class="node">
<title>BoardComponent</title>
<polygon fill="#ffffb3" stroke="black" points="583.55,-122 468.45,-122 468.45,-86 583.55,-86 583.55,-122"/>
<text text-anchor="middle" x="526" y="-99.8" font-family="Times,serif" font-size="14.00">BoardComponent</text>
</g>
<!-- GameModule -->
<g id="node5" class="node">
<title>GameModule</title>
<polygon fill="#8dd3c7" stroke="black" points="337.48,-187 334.48,-191 313.48,-191 310.48,-187 244.52,-187 244.52,-151 337.48,-151 337.48,-187"/>
<text text-anchor="middle" x="291" y="-164.8" font-family="Times,serif" font-size="14.00">GameModule</text>
</g>
<!-- BoardComponent&#45;&gt;GameModule -->
<g id="edge1" class="edge">
<title>BoardComponent&#45;&gt;GameModule</title>
<path fill="none" stroke="black" d="M526,-122.11C526,-141.34 526,-169 526,-169 526,-169 347.71,-169 347.71,-169"/>
<polygon fill="black" stroke="black" points="347.71,-165.5 337.71,-169 347.71,-172.5 347.71,-165.5"/>
</g>
<!-- BoardElementComponent -->
<g id="node2" class="node">
<title>BoardElementComponent</title>
<polygon fill="#ffffb3" stroke="black" points="450.2,-122 287.8,-122 287.8,-86 450.2,-86 450.2,-122"/>
<text text-anchor="middle" x="369" y="-99.8" font-family="Times,serif" font-size="14.00">BoardElementComponent</text>
</g>
<!-- BoardElementComponent&#45;&gt;GameModule -->
<g id="edge2" class="edge">
<title>BoardElementComponent&#45;&gt;GameModule</title>
<path fill="none" stroke="black" d="M312.69,-122.11C312.69,-122.11 312.69,-140.99 312.69,-140.99"/>
<polygon fill="black" stroke="black" points="309.19,-140.99 312.69,-150.99 316.19,-140.99 309.19,-140.99"/>
</g>
<!-- GameComponent -->
<g id="node3" class="node">
<title>GameComponent</title>
<polygon fill="#ffffb3" stroke="black" points="270.26,-122 155.74,-122 155.74,-86 270.26,-86 270.26,-122"/>
<text text-anchor="middle" x="213" y="-99.8" font-family="Times,serif" font-size="14.00">GameComponent</text>
</g>
<!-- GameComponent&#45;&gt;GameModule -->
<g id="edge3" class="edge">
<title>GameComponent&#45;&gt;GameModule</title>
<path fill="none" stroke="black" d="M257.45,-122.11C257.45,-122.11 257.45,-140.99 257.45,-140.99"/>
<polygon fill="black" stroke="black" points="253.95,-140.99 257.45,-150.99 260.95,-140.99 253.95,-140.99"/>
</g>
<!-- ScoreComponent -->
<g id="node4" class="node">
<title>ScoreComponent</title>
<polygon fill="#ffffb3" stroke="black" points="137.7,-122 24.3,-122 24.3,-86 137.7,-86 137.7,-122"/>
<text text-anchor="middle" x="81" y="-99.8" font-family="Times,serif" font-size="14.00">ScoreComponent</text>
</g>
<!-- ScoreComponent&#45;&gt;GameModule -->
<g id="edge4" class="edge">
<title>ScoreComponent&#45;&gt;GameModule</title>
<path fill="none" stroke="black" d="M81,-122.11C81,-141.34 81,-169 81,-169 81,-169 234.39,-169 234.39,-169"/>
<polygon fill="black" stroke="black" points="234.39,-172.5 244.39,-169 234.39,-165.5 234.39,-172.5"/>
</g>
</g>
</svg>
